<?xml version="1.0" encoding="UTF-8"?>
<svg width="92.153mm" height="92.153mm" version="1.1" viewBox="0 0 92.153 92.153" xmlns="http://www.w3.org/2000/svg" xmlns:cc="http://creativecommons.org/ns#" xmlns:dc="http://purl.org/dc/elements/1.1/" xmlns:rdf="http://www.w3.org/1999/02/22-rdf-syntax-ns#">
 <metadata>
  <rdf:RDF>
   <cc:Work rdf:about="">
    <dc:format>image/svg+xml</dc:format>
    <dc:type rdf:resource="http://purl.org/dc/dcmitype/StillImage"/>
    <dc:title/>
   </cc:Work>
  </rdf:RDF>
 </metadata>
 <g transform="translate(-65.36 -67.041)">
  <rect x="66.976" y="68.658" width="88.92" height="88.92" fill="#fff" stroke="#c5bd15" stroke-width="3"/>
  <rect x="65.86" y="67.541" width="91.153" height="91.153" fill="none" stroke="#000"/>
  <g transform="translate(.4009 -40.681)">
   <g transform="translate(0 -3.3137)" stroke-width=".26458">
    <path d="m71.152 160.02v-1.8356l4.2664-0.64492v-28.302l-4.2664-0.66973v-1.8107h16.346v1.8107l-4.2664 0.66973v12.303h13.593v-12.303l-4.2664-0.66973v-1.8107h16.396v1.8107l-4.2912 0.66973v28.302l4.2912 0.64492v1.8356h-16.396v-1.8356l4.2664-0.64492v-13.271h-13.593v13.271l4.2664 0.64492v1.8356z" fill="#800000"/>
    <path d="m113.12 160.02v-1.8356l4.2664-0.64492v-28.302l-4.2664-0.66973v-1.8107h16.346v1.8107l-4.2664 0.66973v12.303h13.593v-12.303l-4.2664-0.66973v-1.8107h16.396v1.8107l-4.2912 0.66973v28.302l4.2912 0.64492v1.8356h-16.396v-1.8356l4.2664-0.64492v-13.271h-13.593v13.271l4.2664 0.64492v1.8356z" fill="#000080"/>
   </g>
   <path d="m114.04 133.28q0 1.1845-0.39865 2.0306-0.39861 0.84609-1.063 1.4722-0.6644 0.62612-1.5447 1.083-0.8637 0.43997-1.827 0.82918l6.3116 5.8042q0.5149-1.3368 0.71421-2.6906 0.21591-1.3538 0.26575-2.5045l-1.8436-0.43996v-1.083h7.9227v1.083l-1.827 0.43996q-0.19931 0.67688-0.44847 1.5399-0.24912 0.86302-0.59794 1.8276-0.33218 0.94764-0.79725 1.963-0.46505 0.9984-1.0962 1.963l3.6541 3.3506 1.9267 0.42304v1.0661h-6.378l-1.9765-1.8614q-1.3288 0.9984-3.1392 1.6076-1.8104 0.59227-4.2188 0.59227-2.3585 0-4.0693-0.40614-1.6942-0.42304-2.7904-1.2353-1.0963-0.81226-1.6277-1.9968-0.5149-1.1845-0.5149-2.7244 0-1.523 0.46506-2.606 0.48169-1.083 1.2291-1.8445 0.74745-0.77842 1.661-1.2692 0.93014-0.50767 1.827-0.86301-0.44845-0.52459-0.83046-1.1169-0.38202-0.59227-0.66438-1.2522-0.28238-0.67687-0.44846-1.4384-0.14948-0.7615-0.14948-1.6415 0-0.98147 0.33218-1.8783 0.33218-0.91379 1.0796-1.6076 0.74741-0.69379 1.9267-1.0999 1.1959-0.40614 2.9233-0.40614 1.6776 0 2.8236 0.38921 1.1461 0.38921 1.8603 1.0661 0.71421 0.65995 1.0132 1.5568 0.31558 0.87993 0.31558 1.8783zm-6.3614 16.702q1.8935 0 3.272-0.5584 1.3786-0.55844 2.3586-1.4722l-7.9227-7.5134q-0.41523 0.28768-0.79724 0.6769-0.38202 0.38918-0.68101 0.96454-0.29895 0.55843-0.48166 1.3368-0.16611 0.76149-0.16611 1.8106 0 2.4198 1.1793 3.5875 1.1793 1.1676 3.2388 1.1676zm-1.7606-16.973q0 0.71074 0.13287 1.2861 0.13288 0.57537 0.3654 1.083 0.23255 0.49075 0.56473 0.93072 0.3322 0.42304 0.7142 0.84609 0.49829-0.27074 0.89693-0.59227 0.41522-0.3215 0.69757-0.79533 0.299-0.4738 0.44846-1.1338 0.14951-0.65995 0.14951-1.6245 0-2.9275-1.8603-2.9275-1.1294 0-1.6277 0.74457-0.48168 0.72764-0.48167 2.1829z" stroke="#fff" stroke-width="1.2101"/>
   <text x="73.486977" y="184.02112" font-family="'Liberation Serif'" font-size="13.326px" font-weight="bold" letter-spacing="0px" stroke-width=".33315" word-spacing="0px" style="line-height:1.25" xml:space="preserve"><tspan x="73.486977" y="184.02112" font-family="'Liberation Serif'" font-weight="bold" stroke-width=".33315">ABOGADOS</tspan></text>
   <rect x="74.563" y="165.34" width="74.22" height=".16207" fill="none" stroke="#000" stroke-width="1.3476"/>
  </g>
 </g>
</svg>
